<svg xmlns="http://www.w3.org/2000/svg" width="1024" height="1024" viewBox="0 0 1024 1024" role="img" aria-label="PKM OpenSource icon">
  <defs>
    <linearGradient id="shell" x1="0%" y1="0%" x2="100%" y2="100%">
      <stop offset="0%" stop-color="#f8fbff" />
      <stop offset="100%" stop-color="#dce7ff" />
    </linearGradient>
    <linearGradient id="cardA" x1="0%" y1="0%" x2="100%" y2="100%">
      <stop offset="0%" stop-color="#2563eb" />
      <stop offset="100%" stop-color="#1d4ed8" />
    </linearGradient>
    <linearGradient id="cardB" x1="0%" y1="0%" x2="100%" y2="100%">
      <stop offset="0%" stop-color="#60a5fa" />
      <stop offset="100%" stop-color="#2563eb" />
    </linearGradient>
    <linearGradient id="cardC" x1="0%" y1="0%" x2="100%" y2="100%">
      <stop offset="0%" stop-color="#f97316" />
      <stop offset="100%" stop-color="#c2410c" />
    </linearGradient>
    <filter id="shadow" x="-20%" y="-20%" width="140%" height="140%">
      <feDropShadow dx="0" dy="22" stdDeviation="28" flood-color="#16356f" flood-opacity="0.16" />
    </filter>
  </defs>

  <rect x="96" y="96" width="832" height="832" rx="200" fill="url(#shell)" />
  <rect x="96" y="96" width="832" height="832" rx="200" fill="none" stroke="#b7c9ec" stroke-width="10" />

  <g filter="url(#shadow)">
    <rect x="256" y="242" width="452" height="156" rx="44" fill="url(#cardA)" transform="rotate(-8 482 320)" />
    <rect x="212" y="430" width="516" height="168" rx="48" fill="url(#cardB)" transform="rotate(6 470 514)" />
    <rect x="302" y="610" width="424" height="146" rx="42" fill="url(#cardC)" transform="rotate(-5 514 683)" />
  </g>

  <g fill="#ffffff" opacity="0.94">
    <rect x="344" y="286" width="184" height="20" rx="10" transform="rotate(-8 436 296)" />
    <rect x="344" y="330" width="248" height="20" rx="10" transform="rotate(-8 468 340)" />

    <rect x="304" y="476" width="180" height="22" rx="11" transform="rotate(6 394 487)" />
    <rect x="304" y="526" width="280" height="22" rx="11" transform="rotate(6 444 537)" />
    <rect x="304" y="576" width="216" height="22" rx="11" transform="rotate(6 412 587)" />

    <rect x="402" y="652" width="136" height="18" rx="9" transform="rotate(-5 470 661)" />
    <rect x="402" y="694" width="204" height="18" rx="9" transform="rotate(-5 504 703)" />
  </g>
</svg>
